HIERARCHY
ROOT Hips
{
	OFFSET 0.000000 0.000000 0.000000 
	CHANNELS 6 Xposition Yposition Zposition Yrotation Zrotation Xrotation 
	JOINT Lumbar
	{
		OFFSET 0.000000 0.000000 0.000000 
		CHANNELS 3 Zrotation Xrotation Yrotation
		JOINT Neck
		{
			OFFSET 0.000000 0.445665 0.000000 
			CHANNELS 3 Zrotation Xrotation Yrotation
			End Site
			{
				OFFSET 0.000000 0.227535 0.000000 
			}
		}
		JOINT RightShoulder
		{
			OFFSET 0.019635 0.377685 0.194865 
			CHANNELS 3 Zrotation Xrotation Yrotation
			JOINT RightElbow
			{
				OFFSET 0.000000 -0.243375 0.000000 
				CHANNELS 2 Zrotation Yrotation
				JOINT RightWrist
				{
					OFFSET 0.000000 -0.264825 0.000000 
					CHANNELS 2 Zrotation Xrotation
					End Site
					{
						OFFSET 0.006600 -0.176220 0.000990 
					}
				}
			}
		}
		JOINT LeftShoulder
		{
			OFFSET 0.019635 0.377685 -0.194865 
			CHANNELS 3 Zrotation Xrotation Yrotation
			JOINT LeftElbow
			{
				OFFSET 0.000000 -0.243375 0.000000 
				CHANNELS 2 Zrotation Yrotation
				JOINT LeftWrist
				{
					OFFSET 0.000000 -0.264825 0.000000 
					CHANNELS 2 Zrotation Xrotation
					End Site
					{
						OFFSET 0.006600 -0.176220 -0.000990 
					}
				}
			}
		}
	}
	JOINT RightHip
	{
		OFFSET 0.052140 -0.069960 0.075570 
		CHANNELS 3 Zrotation Xrotation Yrotation
		JOINT RightKnee
		{
			OFFSET 0.000000 -0.402270 0.000000 
			CHANNELS 1 Zrotation
			JOINT RightAnkle
			{
				OFFSET 0.000000 -0.404085 0.000000 
				CHANNELS 3 Zrotation Xrotation Yrotation
				End Site
				{
					OFFSET 0.204105 -0.089430 0.008415 
				}
			}
		}
	}
	JOINT LeftHip
	{
		OFFSET 0.052140 -0.069960 -0.075570 
		CHANNELS 3 Zrotation Xrotation Yrotation
		JOINT LeftKnee
		{
			OFFSET 0.000000 -0.402270 0.000000 
			CHANNELS 1 Zrotation
			JOINT LeftAnkle
			{
				OFFSET 0.000000 -0.404085 0.000000 
				CHANNELS 3 Zrotation Xrotation Yrotation
				End Site
				{
					OFFSET 0.204105 -0.089430 -0.008415 
				}
			}
		}
	}
}
MOTION
Frames: 16
Frame Time: 0.02
-0.01532 0.00043 -0.00413 -537.98215 -32.69784 -3.12314 48.30673 0.88468 -3.84284 -9.62991 -2.69641 -0.45107 -20.73224 -5.9873 -6.40092 40.13881 122.04812 12.53098 5.89159 -28.54943 12.48927 0.19652 43.13073 -95.01059 12.09675 0.57119 34.1528 0.18435 -1.05521 -20.72388 -8.96808 -5.18781 -3.52546 37.37415 9.28196 -2.51914 -26.71696 -9.58957 5.27818 3.61001
-0.01158 0.00069 -0.00469 -537.72068 -32.8088 -3.0314 47.90309 0.92061 -3.90116 -9.50015 -2.59642 -0.46474 -20.22276 -6.46806 -5.29699 39.79262 120.09836 12.19002 5.55291 -27.54788 12.44882 0.12508 42.15055 -95.06774 12.17616 0.54354 34.47759 0.0377 -1.70702 -20.7217 -8.95486 -5.15743 -3.50799 37.78995 9.39115 -1.83109 -26.73386 -9.55864 5.188 3.55781
-0.00784 0.00094 -0.00525 -537.45988 -32.91986 -2.93989 47.49961 0.95655 -3.95928 -9.37032 -2.49653 -0.47838 -19.71337 -6.94739 -4.1961 39.44677 118.15136 11.84964 5.21446 -26.54768 12.40873 0.05251 41.17323 -95.12463 12.25513 0.51599 34.8026 -0.10829 -2.35525 -20.71967 -8.94195 -5.12729 -3.49066 38.2057 9.49983 -1.14549 -26.75085 -9.52787 5.0981 3.50578
-0.00411 0.00119 -0.00581 -537.19919 -33.03053 -2.84842 47.09707 0.99239 -4.01743 -9.24088 -2.39682 -0.49201 -19.20523 -7.42668 -3.09551 39.1015 116.20684 11.50961 4.87664 -25.54894 12.36842 -0.01889 40.19599 -95.18162 12.33426 0.48843 35.12655 -0.25443 -3.00465 -20.7175 -8.92884 -5.09704 -3.47327 38.62039 9.60864 -0.45965 -26.76771 -9.49705 5.0082 3.45375
-0.00039 0.00145 -0.00637 -536.9379 -33.14097 -2.75676 46.69469 1.02818 -4.07577 -9.11166 -2.29705 -0.50566 -18.69751 -7.90739 -1.99203 38.75622 114.26144 11.16928 4.53905 -24.54947 12.32771 -0.08877 39.21611 -95.23885 12.41391 0.46078 35.44996 -0.40137 -3.65863 -20.71519 -8.91528 -5.06648 -3.45567 39.03477 9.71805 0.22887 -26.78445 -9.46603 4.91803 3.40154
0.00337 0.0017 -0.00693 -536.67816 -33.25337 -2.66558 46.2889 1.06445 -4.13343 -8.98055 -2.19692 -0.51927 -18.18464 -8.3838 -0.89664 38.40924 112.31158 10.82889 4.19889 -23.54778 12.28895 -0.16702 38.2443 -95.29499 12.49144 0.43345 35.77835 -0.54543 -4.29498 -20.71374 -8.9037 -5.03718 -3.43891 39.45342 9.82521 0.90837 -26.80196 -9.4358 4.82868 3.34987
0.00706 0.00195 -0.00749 -536.41555 -33.36158 -2.57351 45.89062 1.0997 -4.19244 -8.85344 -2.09766 -0.53295 -17.6828 -8.8683 0.21376 38.06587 110.37115 10.4887 3.86388 -22.5518 12.24621 -0.22808 37.25696 -95.35339 12.57316 0.40549 36.09605 -0.6949 -4.96496 -20.71044 -8.88827 -5.00547 -3.42053 39.86277 9.9367 1.60494 -26.81787 -9.40402 4.73779 3.2972
0.01082 0.0022 -0.00805 -536.15567 -33.47387 -2.48229 45.48504 1.1359 -4.2501 -8.72255 -1.99754 -0.54656 -17.17058 -9.34539 1.31045 37.71955 108.42515 10.1489 3.52487 -21.55029 12.20732 -0.30549 36.28463 -95.40947 12.65101 0.37814 36.42415 -0.83978 -5.606 -20.70907 -8.87616 -4.97582 -3.40354 40.28114 10.04435 2.28635 -26.8353 -9.37364 4.64828 3.24542
0.01465 0.00246 -0.0086 -535.89864 -33.59042 -2.39195 45.0717 1.17324 -4.30654 -8.58727 -1.89652 -0.56011 -16.64606 -9.81345 2.3904 37.36786 106.45851 9.80705 3.17771 -20.54232 12.17242 -0.40115 35.32748 -95.46367 12.72415 0.35138 36.76317 -0.9775 -6.20342 -20.70921 -8.86905 -4.94937 -3.38868 40.70917 10.14669 2.94713 -26.85446 -9.34512 4.56061 3.19483
0.01802 0.00272 -0.0092 -535.62373 -33.6803 -2.29606 44.70646 1.20398 -4.37129 -8.4779 -1.80113 -0.57407 -16.1934 -10.33356 3.56674 37.04172 104.56892 9.46936 2.8676 -19.57235 12.11241 -0.38662 34.2734 -95.53156 12.82442 0.32078 37.03403 -1.15175 -7.027 -20.6981 -8.83603 -4.90653 -3.36289 41.07756 10.27772 3.72034 -26.86329 -9.30634 4.46282 3.13771
0.02239 0.00295 -0.00969 -535.38753 -33.82773 -2.21218 44.23766 1.24867 -4.41769 -8.31352 -1.69358 -0.58715 -15.58863 -10.74374 4.53956 36.66518 102.54391 9.12785 2.48575 -18.52195 12.10674 -0.60775 33.43005 -95.56872 12.86744 0.29859 37.45194 -1.25194 -7.38943 -20.71236 -8.85584 -4.89696 -3.35928 41.5742 10.34942 4.26035 -26.89412 -9.2889 4.38609 3.09417
0.02932 0.00315 -0.00987 -535.2507 -34.1248 -2.15913 43.498 1.33177 -4.41996 -7.9992 -1.55472 -0.59793 -14.56613 -10.85075 4.95046 36.1218 99.91207 8.73392 1.85048 -17.24928 12.24089 -1.45626 33.11979 -95.5355 12.75155 0.29704 38.25253 -1.12167 -6.33953 -20.7843 -9.03751 -4.99067 -3.42433 42.40824 10.24648 4.11938 -26.98495 -9.33353 4.37022 3.08996
0.03729 0.0033 -0.00996 -535.15409 -34.48146 -2.11855 42.65161 1.42877 -4.40261 -7.62938 -1.4033 -0.60781 -13.39128 -10.84795 5.158 35.53443 97.18289 8.34318 1.15268 -15.89582 12.43155 -2.54482 33.02974 -95.46859 12.57831 0.3044 39.20546 -0.92177 -4.85188 -20.88446 -9.26931 -5.11571 -3.51028 43.37458 10.08591 3.75057 -27.09841 -9.39909 4.37505 3.09907
0.04488 0.00345 -0.0101 -535.04347 -34.81593 -2.07361 41.84572 1.51951 -4.39024 -7.28436 -1.25621 -0.61802 -12.28587 -10.89602 5.4604 34.98413 94.65813 7.97933 0.52165 -14.58068 12.60213 -3.53638 32.86813 -95.40832 12.43273 0.30927 40.10129 -0.77195 -3.66292 -20.97878 -9.46689 -5.21842 -3.58145 44.28887 9.95975 3.5145 -27.20118 -9.45263 4.36825 3.10061
0.05206 0.00373 -0.01018 -534.91464 -35.12877 -2.02306 41.0745 1.61051 -4.3946 -6.94124 -1.11476 -0.62857 -11.17785 -10.93856 5.7506 34.35615 91.47722 7.49896 -0.26742 -13.25974 12.74823 -4.47813 32.58566 -95.38562 12.28106 0.30754 40.94296 -0.54547 -2.05983 -21.04142 -9.71202 -5.35477 -3.6746 45.16607 9.7998 3.16007 -27.30378 -9.51622 4.3704 3.10828
0.06037 0.00371 -0.01038 -534.83362 -35.50216 -1.98731 40.20438 1.70365 -4.35924 -6.58071 -0.9588 -0.63821 -10.04098 -10.96812 6.01988 33.88642 89.61446 7.25814 -0.74717 -11.93032 12.9599 -5.57958 32.6083 -95.27538 12.12753 0.32173 41.93763 -0.4605 -1.20566 -21.17956 -9.87105 -5.4292 -3.72738 46.15598 9.6953 2.99146 -27.41453 -9.56454 4.3594 3.10674
